# xmcd
#
# Track frame offsets:
#	150
#	17786
#	36263
#	51260
#	68021
#	82958
#	99361
#	116982
#	129737
#	147166
#	166539
#
# Disc length: 2457 seconds
# Revision: 0
# Processed by: cddbd v1.5.2PL0 Copyright (c) Steve Scherf et al.
# Submitted via: dBpowerAMP V12.0
#
DISCID=8e09970b
DTITLE=Tone Damli - Cocool
DYEAR=2010
DGENRE=Pop
TTITLE0=Slightly Bitter Taste
TTITLE1=No Way Out
TTITLE2=Crazy Cool
TTITLE3=Can`t Face Losing You
TTITLE4=Stuck in My Head
TTITLE5=I Love You
TTITLE6=That`s What You Get
TTITLE7=Stupid
TTITLE8=Don`t Wake Me
TTITLE9=40 Years
TTITLE10=Love Me Like You Hate Me
EXTD=
EXTT0=
EXTT1=
EXTT2=
EXTT3=
EXTT4=
EXTT5=
EXTT6=
EXTT7=
EXTT8=
EXTT9=
EXTT10=
PLAYORDER=
